<svg height="369pt" viewBox="0 0 369.44715 369" width="369pt" xmlns="http://www.w3.org/2000/svg"><g fill="#9bc9ff"><path d="m307.816406 152.363281-90.511718-90.511719-181.023438 181.023438 48.089844-2.832031-2.832032 48.089843 48.085938-2.832031-2.832031 48.085938zm0 0"/><path d="m217.308594 61.863281 16.972656-16.972656 90.507812 90.511719-16.96875 16.96875zm0 0"/><path d="m234.277344 44.878906 16.96875-16.96875 90.511718 90.507813-16.972656 16.972656zm0 0"/></g><path d="m353.066406 39.21875-22.617187-22.613281c-21.882813-21.84375-57.316407-21.84375-79.199219 0l-220.625 220.613281c-.160156.195312-.304688.398438-.4375.609375-.199219.230469-.375.472656-.539062.726563-.410157.628906-.726563 1.316406-.941407 2.035156-.046875.152344-.160156.269531-.199219.429687l-28.289062 118.792969c-.570312 2.382812-.015625 4.894531 1.503906 6.8125 1.515625 1.921875 3.832032 3.042969 6.28125 3.042969.625 0 1.246094-.074219 1.855469-.214844l118.789063-28.289063c.203124-.046874.355468-.183593.546874-.246093.503907-.175781.992188-.402344 1.453126-.671875.46875-.246094.90625-.539063 1.3125-.875.152343-.132813.34375-.183594.488281-.328125l220.617187-220.621094c21.839844-21.882813 21.839844-57.320313 0-79.203125zm-28.28125 84.867188-79.199218-79.203126 5.664062-5.664062 79.199219 79.203125zm-16.96875 16.964843-79.199218-79.199219 5.65625-5.65625 79.199218 79.199219zm-231.957031 107.515625-2.304687 39.09375c-.132813 2.28125.714843 4.511719 2.328124 6.128906 1.617188 1.613282 3.847657 2.460938 6.128907 2.328126l39.09375-2.304688-1.941407 33.167969-85.515624 20.359375 8.296874-8.296875c3.03125-3.136719 2.988282-8.128907-.097656-11.214844-3.085937-3.085937-8.074218-3.128906-11.214844-.09375l-8.300781 8.285156 20.359375-85.519531zm61.597656 40.238282 119.441407-119.472657c2.078124-2.007812 2.914062-4.984375 2.179687-7.78125-.730469-2.796875-2.914063-4.980469-5.710937-5.710937-2.796876-.734375-5.773438.101562-7.78125 2.179687l-119.472657 119.472657-36.054687 2.121093 2.121094-36.058593 119.46875-119.46875c3.035156-3.140626 2.992187-8.128907-.09375-11.214844-3.085938-3.085938-8.078126-3.128906-11.214844-.097656l-119.488282 119.464843-24 1.382813 160.453126-160.457032 79.203124 79.199219-160.457031 160.457031zm204.320313-181.6875-79.199219-79.199219c15.632813-15.601563 40.945313-15.601563 56.574219 0l22.625 22.621093c15.59375 15.640626 15.582031 40.953126-.023438 56.578126zm0 0" fill="#1e81ce"/></svg>